<svg xmlns="http://www.w3.org/2000/svg" viewBox="0 0 320 320"><defs><style>.cls-1{fill:#00aeef;}.cls-2{fill:#29aae1;}.cls-3,.cls-4{fill:none;stroke:#00aeef;stroke-miterlimit:10;}.cls-4{stroke-width:1.5px;}.cls-5{isolation:isolate;}</style></defs><title>svg-sprite</title><g id="Layer_2" data-name="Layer 2"><path class="cls-1" d="M31.08,253.25H2V227H31.08ZM6.67,229.07H3.53v3.14H6.67Zm4.43,0H8v3.14H11.1Zm4.43.06H12.4v3.14h3.14Zm4.43,0H16.83v3.14H20Zm4.43,0H21.27v3.14H24.4Zm4.43,0H25.7v3.14h3.14ZM6.67,247.82H3.53V251H6.67Zm4.43,0H8V251H11.1Zm4.43.06H12.4V251h3.14Zm4.43,0H16.83V251H20Zm4.43,0H21.27V251H24.4Zm4.43,0H25.7V251h3.14ZM15.51,234.17h-12v12h12Zm13.31,0h-12v12h12Z"/><path class="cls-2" d="M138.52,242.11a4,4,0,1,0-4-4A4,4,0,0,0,138.52,242.11Zm0-6.47a2.43,2.43,0,1,1-2.43,2.43A2.43,2.43,0,0,1,138.52,235.64Z"/><path class="cls-2" d="M144.18,242.11h-2.76l-2.9,2.9-2.9-2.9h-2.76a2.43,2.43,0,0,0-2.43,2.43v5.66H132v-5.66a.81.81,0,0,1,.81-.81h2.09l3,3a.81.81,0,0,0,1.14,0l3-3h2.09a.81.81,0,0,1,.81.81v5.66h1.62v-5.66A2.43,2.43,0,0,0,144.18,242.11Z"/><path class="cls-2" d="M151.48,237.89a4,4,0,1,0-4-4A4,4,0,0,0,151.48,237.89Zm0-6.47a2.43,2.43,0,1,1-2.43,2.43A2.43,2.43,0,0,1,151.48,231.41Z"/><path class="cls-2" d="M157.15,237.89h-2.76l-2.9,2.9-2.9-2.9h-2.76a2.43,2.43,0,0,0-2.43,2.43V243H145v-2.72a.81.81,0,0,1,.81-.81h2.09l3,3a.81.81,0,0,0,1.14,0l3-3h2.09a.81.81,0,0,1,.81.81V246h1.62v-5.66A2.43,2.43,0,0,0,157.15,237.89Z"/><path class="cls-2" d="M107.86,239.86,122,225.71h-6.76l-12.45,12.46a2.39,2.39,0,0,0,0,3.38l11.9,11.9h6.76Z"/></g><g id="audio"><path class="cls-1" d="M48.11,101.16a1.09,1.09,0,0,0-1.86-.66L40,106.88h-3.4a1.31,1.31,0,0,0-1.31,1.31v7.24a1.31,1.31,0,0,0,1.31,1.31H40l6.3,6.38a1.09,1.09,0,0,0,1.86-.66s0-.06,0-.09V101.25S48.12,101.19,48.11,101.16Z"/><path class="cls-1" d="M54.4,120.92c-.74.32-1.32.94-1.19,1.48h0c.13.54,1.09.76,2,.36,9.55-4.11,9.55-18,0-22.13-.93-.4-1.88-.18-2,.36h0c-.13.54.45,1.15,1.19,1.48C62.37,105.89,62.37,117.49,54.4,120.92Z"/><path class="cls-1" d="M51.1,117.54c-.45.2-.8.57-.72.89h0c.08.33.66.46,1.22.22a7.34,7.34,0,0,0,0-13.4c-.56-.24-1.14-.11-1.22.22h0c-.08.33.27.7.72.89A6.12,6.12,0,0,1,51.1,117.54Z"/><path class="cls-3" d="M51.1,117.54c-.45.2-.8.57-.72.89h0c.08.33.66.46,1.22.22a7.34,7.34,0,0,0,0-13.4c-.56-.24-1.14-.11-1.22.22h0c-.08.33.27.7.72.89A6.12,6.12,0,0,1,51.1,117.54Z"/></g><g id="camera"><path class="cls-1" d="M27.91,104.71h0l-5.56,4.4h0V103H3.13V120.9h19.2v-5.79h0l5.53,3.38h2V104.72h-2Z"/></g><g id="icn-watch"><circle class="cls-4" cx="272.16" cy="80.05" r="14.05"/><path class="cls-1" d="M283.47,79.94c-.2-.26-5-6.26-11.07-6.26s-10.87,6-11.07,6.26l-.35.45.36.45c.2.25,5,6.17,11.07,6.17s10.85-6,11.06-6.21l.36-.45Zm-11.07,5.32a5,5,0,1,1,5-5,5,5,0,0,1-5,5Zm-9.48-4.91A18.18,18.18,0,0,1,268.72,76a5.7,5.7,0,0,0,0,8.72A18.19,18.19,0,0,1,262.92,80.35Zm13.15,4.33a5.7,5.7,0,0,0,0-8.72,18.26,18.26,0,0,1,5.79,4.39A18.13,18.13,0,0,1,276.07,84.68Z"/></g><g id="icn-utilities"><circle class="cls-4" cx="240.08" cy="80.05" r="14.05"/><g class="cls-5"><path class="cls-1" d="M248.05,84.67a3.25,3.25,0,0,1-3.25,3.25h-9.34a3.25,3.25,0,0,1-3.25-3.25V75.34a3.25,3.25,0,0,1,3.25-3.25h2.91a.37.37,0,0,1,.34.34c0,.17-.09.34-.26.34a5.75,5.75,0,0,0-1.46.69c-.09,0-.09.09-.17.09h-1.28a1.81,1.81,0,0,0-1.8,1.8v9.34a1.81,1.81,0,0,0,1.8,1.8h9.34a1.81,1.81,0,0,0,1.8-1.8v-2.4a.45.45,0,0,1,.17-.34,1.54,1.54,0,0,0,.6-.43.38.38,0,0,1,.43-.09c.17.09.26.17.26.34v2.91Zm-3-4.28a.65.65,0,0,1-.43.17.31.31,0,0,1-.26-.09A.53.53,0,0,1,244,80v-1.8h-1.54c-2.06,0-3.43.43-4.11,1.2s-1,2.31-.69,4.45a.45.45,0,0,1-.17.34h-.09c-.09,0-.17-.09-.26-.09A8.46,8.46,0,0,1,235.63,80c0-2.48.77-5.4,6.94-5.4h1.54v-1.8a.58.58,0,0,1,.34-.51c.09,0,.17-.09.26-.09a.65.65,0,0,1,.43.17l3.6,3.6a.57.57,0,0,1,0,.86Z"/></g></g><g id="icn-print"><circle class="cls-4" cx="208.11" cy="80.05" r="14.05"/><path class="cls-1" d="M214.88,77.22h-1.2V73a1,1,0,0,0-1-1h-9.76a1,1,0,0,0-1,1v4.2h-1.2a1.35,1.35,0,0,0-1.37,1.37v5.05A1.35,1.35,0,0,0,200.66,85h1.2v2.83a1,1,0,0,0,1,1h9.68a1,1,0,0,0,1-1V85h1.2a1.35,1.35,0,0,0,1.37-1.37V78.59A1.24,1.24,0,0,0,214.88,77.22Zm-2.57,9.59a.59.59,0,0,1-.6.6h-7.54a.59.59,0,0,1-.6-.6V81.68h8.82v5.14Zm0-9.59h-8.82V74.05a.59.59,0,0,1,.6-.6h7.54a.59.59,0,0,1,.6.6v3.17Zm1,3.25a1,1,0,1,1,1-1A1.11,1.11,0,0,1,213.33,80.48Z"/></g><g id="icn-attachments"><circle class="cls-4" cx="176.13" cy="80.05" r="14.05"/><path class="cls-1" d="M184.53,73.88a3.77,3.77,0,0,0-5.31,0L173,80a2.42,2.42,0,0,0,3.43,3.43l6.17-6.17-1.11-1.11-6.25,6.17a.91.91,0,0,1-1.2.17.83.83,0,0,1-.17-1.2c.09-.09.09-.17.17-.17L180.24,75a2.18,2.18,0,0,1,3.08,3.08h0l-8.48,8.48a3.58,3.58,0,1,1-5.23-4.88l.17-.17,8.57-8.57-1.11-1.11-8.57,8.57a5.16,5.16,0,1,0,6.85,7.71l.43-.43,8.48-8.48a3.7,3.7,0,0,0,.09-5.31"/></g><g id="toc"><g id="Page-1"><g id="icn"><path class="cls-1" d="M143.83,88.86a12.41,12.41,0,1,1,12.45-12.41A12.44,12.44,0,0,1,143.83,88.86Zm0-22.89a10.48,10.48,0,1,0,10.52,10.48A10.51,10.51,0,0,0,143.83,66Z"/><rect id="Rectangle-path" class="cls-1" x="139.48" y="71.81" width="12.26" height="1.85"/><rect id="Rectangle-path-2" data-name="Rectangle-path" class="cls-1" x="139.48" y="75.52" width="12.26" height="1.85"/><rect id="Rectangle-path-3" data-name="Rectangle-path" class="cls-1" x="139.48" y="79.23" width="12.26" height="1.85"/><rect id="Rectangle-path-4" data-name="Rectangle-path" class="cls-1" x="135.82" y="71.81" width="2.03" height="1.85"/><rect id="Rectangle-path-5" data-name="Rectangle-path" class="cls-1" x="135.82" y="75.52" width="2.03" height="1.85"/><rect id="Rectangle-path-6" data-name="Rectangle-path" class="cls-1" x="135.82" y="79.23" width="2.03" height="1.85"/><polygon id="Triangle" class="cls-1" points="143.74 96.06 140.15 91 147.32 91 143.74 96.06"/></g></g></g><g id="arrows-close"><polygon class="cls-1" points="29.7 68.38 27.32 66 20.77 72.55 20.77 67.64 17.41 67.64 17.41 78.29 28.06 78.29 28.06 74.93 23.15 74.93 29.7 68.38"/><polygon class="cls-1" points="2 91.75 4.38 94.12 10.93 87.57 10.93 92.48 14.29 92.48 14.29 81.83 3.64 81.83 3.64 85.19 8.55 85.19 2 91.75"/></g><g id="arrows-open"><polygon class="cls-1" points="47.41 77.91 49.79 80.29 56.34 73.74 56.34 78.65 59.7 78.65 59.7 68 49.05 68 49.05 71.36 53.96 71.36 47.41 77.91"/><polygon class="cls-1" points="47.29 83.2 44.91 80.83 38.36 87.38 38.36 82.47 35 82.47 35 93.12 45.65 93.12 45.65 89.76 40.74 89.76 47.29 83.2"/></g><g id="calendar"><path class="cls-1" d="M318.85,60a2.17,2.17,0,0,1-2.15,2.15H293A2.17,2.17,0,0,1,290.9,60V38.54A2.17,2.17,0,0,1,293,36.39h2.15V34.78a2.7,2.7,0,0,1,2.69-2.69H299a2.7,2.7,0,0,1,2.69,2.69v1.61h6.45V34.78a2.7,2.7,0,0,1,2.69-2.69h1.07a2.7,2.7,0,0,1,2.69,2.69v1.61h2.15a2.17,2.17,0,0,1,2.15,2.15Zm-21-12.36V42.84H293v4.84Zm0,6.45V48.76H293v5.38Zm0,5.91V55.21H293V60Zm1.61-25.26a.55.55,0,0,0-.54-.54h-1.07a.55.55,0,0,0-.54.54v4.84a.55.55,0,0,0,.54.54H299a.55.55,0,0,0,.54-.54Zm4.84,12.9V42.84H299v4.84Zm0,6.45V48.76H299v5.38Zm0,5.91V55.21H299V60Zm6.45-12.36V42.84h-5.37v4.84Zm0,6.45V48.76h-5.37v5.38Zm0,5.91V55.21h-5.37V60Zm1.61-25.26a.55.55,0,0,0-.54-.54h-1.07a.55.55,0,0,0-.54.54v4.84a.55.55,0,0,0,.54.54h1.07a.55.55,0,0,0,.54-.54Zm4.3,12.9V42.84h-4.84v4.84Zm0,6.45V48.76h-4.84v5.38Zm0,5.91V55.21h-4.84V60Z"/></g><g id="date"><path class="cls-1" d="M281.85,37h-1.4v-2.8h-2.8V37h-11.2v-2.8h-2.8V37h-1.4a2.79,2.79,0,0,0-2.79,2.8v19.6a2.8,2.8,0,0,0,2.8,2.8h19.6a2.81,2.81,0,0,0,2.8-2.8V39.79A2.81,2.81,0,0,0,281.85,37Zm0,22.4h-19.6V44h19.6ZM279,57.11h-5.77V51.33H279Z"/></g><g id="image"><path class="cls-1" d="M231.64,34.19a2.79,2.79,0,0,0-2.79,2.8v22.4a2.79,2.79,0,0,0,2.79,2.8h16.81a2.8,2.8,0,0,0,2.8-2.8V42.59l-8.4-8.4Zm9.8,9.8v-7.7l7.7,7.7Zm8.13,13.24h-19L235.93,50l2,2.92,4.45-6Z"/></g><g id="arrow-left"><polygon class="cls-1" points="93.52 82.74 93.52 76.63 76.7 76.63 83 70.32 78.68 66 65 79.68 78.68 93.36 83 89.04 76.7 82.74 93.52 82.74"/></g><g id="arrow-right"><polygon class="cls-1" points="98.48 76.26 98.48 82.37 115.3 82.37 109 88.68 113.32 93 127 79.32 113.32 65.64 109 69.96 115.3 76.26 98.48 76.26"/></g><g id="page"><path class="cls-1" d="M146.24,62.19h8.4V37a2.8,2.8,0,0,0-2.8-2.8H135a2.79,2.79,0,0,0-2.79,2.8v22.4a2.79,2.79,0,0,0,2.79,2.8Zm6.3-9.8-7.7,7.7v-7.7Zm0-11H134.31V38.61h18.28Zm-5,5.84H134.31V44.45h13.25Z"/></g><g id="text"><path class="cls-1" d="M167.84,34.19a2.79,2.79,0,0,0-2.79,2.8v22.4a2.79,2.79,0,0,0,2.79,2.8h16.81a2.8,2.8,0,0,0,2.8-2.8V42.59l-8.4-8.4Zm9.8,9.8v-7.7l7.7,7.7Zm7.7,5.88H167.06V47.08h18.28Zm-5,5.84H167.06V52.93h13.25Z"/></g><g id="logo"><path class="cls-1" d="M140.77,27H133.2c1-.84,1.21-4.12,1.63-9.9l.08-1.35c.23-3.28.39-5.8.36-7.57,0-1.51-.2-2.49-.62-2.83h8.47c2,0,6.06.11,6.06,4.32,0,2.8-2.61,4.54-5,5.16,3.36.34,5.89,2,5.89,5.44,0,3.76-3.53,6.73-9.31,6.73m-.34-10.46h-1.54l-.22,3.2c-.11,1.4-.17,2.58-.2,4,0,.2.62.62,2.07.62,3,0,5-1.51,5-4,0-2.78-2.27-3.78-5.13-3.78m.7-8.58a14.91,14.91,0,0,0-1.51.06c-.22,1.51-.36,3-.48,4.57,0,0-.08,1.38-.08,1.32h.56c2.75,0,5.27-1,5.27-3.48C144.89,9,143.68,8,141.13,8m26.69,19.23c-1.85,0-2-.05-3.48-5.16l-.53-1.88a13.29,13.29,0,0,1-5,.62h-2.58l-.45,1c-.45,1-1.54,3.08-1.51,4.29a3.55,3.55,0,0,0,.14,1h-5.19c1.49-1.49,3.36-4.94,6-10.51l1.51-3.22a51.27,51.27,0,0,0,2.83-6.7,3,3,0,0,0-.28-1.21h4.71s1.23,4.68,2.33,8.58l.93,3.42c1.6,5.75,2.61,8.55,4,9.65-1.2.14-2.72.19-3.31.19M161,10.46,157.51,18h5.69L161,10.46M188.32,28c-1.6,0-2-.25-2.52-1l-6.06-8.41c-.48-.65-.84-1.18-1.6-1.18H178L177.89,19c-.14,2.22-.22,4-.22,5.3s.2,2.35.59,2.72H172.4c.84-.76,1.15-3.28,1.63-9.9l.08-1.37c.22-3.25.39-5.78.36-7.54,0-1.54-.2-2.49-.62-2.83h8c2.61,0,6.2.45,6.2,4.68,0,3.48-2.33,5.38-5.22,6.28a13.75,13.75,0,0,1,1.09,1.29l4.4,5.83c2.75,3.62,3,3.79,4,4.29-1.23.14-2.89.2-4,.2M180.5,8a16.55,16.55,0,0,0-1.68.06c-.17.92-.31,2.52-.5,5.1l-.11,1.52a5.45,5.45,0,0,0,1,.08c2.69,0,4.54-1.63,4.54-4.09C183.72,9,182.55,8,180.5,8m19.35,19.43c-5.58,0-8.8-4.6-8.8-9.76C191,10.51,194.94,5,202.37,5c2.33,0,3.42.42,5.3.42l-.56,5.52A5.76,5.76,0,0,0,202,7.65c-4.62,0-6.51,5-6.51,9.28,0,4.66,2.61,7.21,6.09,7.21,1.88,0,3.53-.5,6.31-2.44-1.12,3.59-3.73,5.75-8,5.75M238,27.22c-1.85,0-2-.05-3.48-5.16L234,20.19a13.27,13.27,0,0,1-5,.62h-2.58l-.45,1c-.64,1.43-1.52,3.11-1.52,4.29a3.4,3.4,0,0,0,.14,1H209.24c.87-1,1.15-4.15,1.57-9.9l.09-1.37c.22-3.28.39-5.8.36-7.57,0-1.46-.17-2.38-.56-2.8h5.92c-.84.64-1.15,4.12-1.54,9.87L215,16.63c-.14,2.13-.42,4.32-.42,6.45,0,1,.39,1.2,1.4,1.2,3.59,0,4.49-.08,6.11-1.18,1-1.85,2.16-4.18,3.28-6.59l1.51-3.22c1.43-3,2.83-6.11,2.83-6.7a3,3,0,0,0-.28-1.21h4.71S236,12.45,236.44,14l.92,3.42c1.6,5.75,2.61,8.55,4,9.65-1.12.14-2.72.19-3.31.19m-6.81-16.77L227.72,18h5.66l-2.19-7.54m20.38,4.91c-.51.84-1.15,2-1.54,2.83a31.07,31.07,0,0,0-.5,6.08,4.82,4.82,0,0,0,.62,2.75h-5.86c1-1,1.46-7,1.4-8.92a46.17,46.17,0,0,0-3.48-8.5c-1-2-2.24-3.87-3-4.23,1.32-.11,3-.2,3.81-.2,1.46,0,1.85.2,2.75,2.16,1.4,3.17,2.44,5.55,3.06,7.32,1.49-2.33,2.52-3.93,3.87-6.11a3.66,3.66,0,0,0,.62-1.85A2.24,2.24,0,0,0,253,5.38h5.8c-1.12.25-6.17,8.19-7.23,10m19.6-4.85a5.76,5.76,0,0,0-4.94-2.86c-1.85,0-3.48.76-3.48,2.72,0,1.65,2,2.78,4.18,4.15,2.33,1.46,4.74,3.25,4.74,6.36,0,4.07-4,6.56-8.53,6.56a16.84,16.84,0,0,1-6.05-1.21l.36-5.41a6.52,6.52,0,0,0,6,3.87c2.27,0,4-1.09,4-3,0-1.63-1.37-2.63-3.06-3.64-3.53-2.13-5.78-3.84-5.78-6.93,0-4.63,3.87-6.17,7.88-6.17,2.33,0,3.79.42,5.27.42Z"/><path class="cls-1" d="M125.48,12.12a11,11,0,0,0-1-3.81,5.81,5.81,0,0,0-1.49-2,4.14,4.14,0,0,0-1.34-.69,4,4,0,0,0-1.27-.18,2.93,2.93,0,0,0-2.22.93,1.46,1.46,0,0,0,.52,2.33h0c-.14.27-.59.81-2,.79a2.32,2.32,0,0,1-2-1.1,5.71,5.71,0,0,1-.63-3,6.43,6.43,0,0,0-.3-1.87,1.74,1.74,0,0,0-.62-.9,2.72,2.72,0,0,0-.86-.45A5.19,5.19,0,0,0,110.78,2c-.71,0-.92.08-1.21.42a4.66,4.66,0,0,0-1.27.08,3,3,0,0,0-1.22.56,1.6,1.6,0,0,0-.56.81,1,1,0,0,0,0,.19,1.36,1.36,0,0,0,0,.24,1.11,1.11,0,0,0,.05.19.69.69,0,0,0,.08.15c.56-.61,2.24-.3,2.71.38a2.39,2.39,0,0,1,.28,1.83,2.65,2.65,0,0,1-2.21,2.6c-.73.1-2,.11-2.5-.74h0a1.46,1.46,0,0,0,.52-2.33,3.38,3.38,0,0,0-3.49-.75,4.75,4.75,0,0,0-2.83,2.67,11.2,11.2,0,0,0-1,3.81,19.25,19.25,0,0,0,0,3.63,13.69,13.69,0,0,0,.88,4A19.25,19.25,0,0,0,100.54,23c.4.65.49.81.58.81s.07,0,.51-.49a17.58,17.58,0,0,0,1.1-1.38,9.5,9.5,0,0,0,.73-1.22.71.71,0,0,1,.23.57,4.36,4.36,0,0,1-.22,1.08,10,10,0,0,1-.82,2c-.32.58-.6,1-.3,1.2s.78-.2,1-.36a9.71,9.71,0,0,0,1.91-2.09A18.49,18.49,0,0,0,107,20.12a.3.3,0,0,1,.14.13.94.94,0,0,1,.08.58,10,10,0,0,1-.76,2.32,17.71,17.71,0,0,1-2.17,3.47c-.1.13-.28.31-.28.41s.18.21.73.66a19.63,19.63,0,0,0,3.06,2.08,20.83,20.83,0,0,0,4,1.77,20.85,20.85,0,0,0,4-1.77,19.58,19.58,0,0,0,3.07-2.08c.55-.45.73-.58.73-.66s-.18-.28-.28-.41a17.72,17.72,0,0,1-2.17-3.47,10,10,0,0,1-.76-2.32,1,1,0,0,1,.08-.58.3.3,0,0,1,.14-.13,18.49,18.49,0,0,0,1.72,2.94,9.7,9.7,0,0,0,1.91,2.09c.21.16.76.55,1,.36s0-.62-.3-1.2a10.36,10.36,0,0,1-.82-2,4.39,4.39,0,0,1-.22-1.08.72.72,0,0,1,.23-.57,9.5,9.5,0,0,0,.73,1.22,17.58,17.58,0,0,0,1.1,1.38c.44.44.45.49.51.49s.19-.16.59-.81a19.29,19.29,0,0,0,1.56-3.25,13.67,13.67,0,0,0,.88-4A19.15,19.15,0,0,0,125.48,12.12Z"/></g><g id="phone"><path class="cls-1" d="M94,25.2l-7.35-7.35L83.5,21h0l-8.4-8.4,3.15-3.15L70.89,2.09,67.74,5.24h0a5.94,5.94,0,0,0,0,8.4L79.29,25.2l3.15,3.15a6,6,0,0,0,8.41,0h0Z"/></g><g id="person"><path class="cls-1" d="M48,16a7,7,0,1,0-7-7A7,7,0,0,0,48,16ZM48,4.8A4.2,4.2,0,1,1,43.8,9,4.2,4.2,0,0,1,48,4.8Z"/><path class="cls-1" d="M57.8,16H53l-5,5-5-5H38.2A4.2,4.2,0,0,0,34,20.2V30h2.8V20.2a1.4,1.4,0,0,1,1.4-1.4h3.62L47,24a1.4,1.4,0,0,0,2,0l5.19-5.19H57.8a1.4,1.4,0,0,1,1.4,1.4V30H62V20.2A4.2,4.2,0,0,0,57.8,16Z"/></g><g id="email"><path class="cls-1" d="M25.67,10h-20a4.29,4.29,0,0,0-4.29,4.29V25.71A4.29,4.29,0,0,0,5.67,30h20A4.29,4.29,0,0,0,30,25.71V14.29A4.29,4.29,0,0,0,25.67,10Zm0,2.86a1.38,1.38,0,0,1,.39.08L17.31,17.8a5.22,5.22,0,0,1-1.65.74,6,6,0,0,1-1.77-.8l-8.61-4.8a1.38,1.38,0,0,1,.38-.08ZM27.09,20v5.71a1.43,1.43,0,0,1-1.43,1.43h-20a1.43,1.43,0,0,1-1.43-1.43V14.27l9.62,6.78a3.14,3.14,0,0,0,1.81.64,2.81,2.81,0,0,0,1.71-.59l9.69-6.93s0,.07,0,.11Z"/></g><g id="word"><path class="cls-1" d="M199.64,34.19a2.79,2.79,0,0,0-2.79,2.8v22.4a2.79,2.79,0,0,0,2.79,2.8h16.81a2.8,2.8,0,0,0,2.8-2.8V42.59l-8.4-8.4Zm9.8,9.8v-7.7l7.7,7.7Zm-.24,5.63,2,5.94,1.95-5.94h-1.24V47.54h4.95v2.09h-1.34L212.13,60h-2.31l-1.95-5.64L206,60h-2.36l-3.53-10.35h-1.31V47.54h5.57v2.09h-1.28l2,5.94L207,49.62"/></g><g id="excel"><path class="cls-1" d="M103.24,34.19a2.79,2.79,0,0,0-2.79,2.8v22.4a2.79,2.79,0,0,0,2.79,2.8H120a2.8,2.8,0,0,0,2.8-2.8V42.59l-8.4-8.4ZM113,44v-7.7l7.7,7.7ZM104.91,59.2V57.11h1.82l3-4.25-3-3.93H105V46.84h6.47v2.09h-1.19L112,51.1l1.57-2.18H112.5V46.84h5.57v2.09h-1.72L113.43,53l3.23,4.13h1.78V59.2h-6.65V57.11H113l-1.87-2.44-1.77,2.44h1.27V59.2Z"/></g><g id="html"><path class="cls-1" d="M39.38,34.19A2.79,2.79,0,0,0,36.59,37v22.4a2.79,2.79,0,0,0,2.79,2.8H56.18a2.8,2.8,0,0,0,2.8-2.8V42.59l-8.4-8.4Zm9.8,9.8v-7.7l7.7,7.7Zm-10,10.31V52.23l7.62-5.11v2.22l-6,3.93,6,4v2.22Zm17,0-7.62,5.15V57.23l6-4-6-3.93V47.11l7.62,5.11Z"/></g><g id="powerpoint"><path class="cls-1" d="M71.54,34.19A2.79,2.79,0,0,0,68.76,37v22.4a2.79,2.79,0,0,0,2.79,2.8H88.34a2.8,2.8,0,0,0,2.8-2.8V42.59l-8.4-8.4Zm9.8,9.8v-7.7L89,44Zm0,13.44v2.09H74.85V57.43h1.57V49.24H74.85V47.16h6.51a5.23,5.23,0,0,1,3.52,1.07,3.6,3.6,0,0,1,1.24,2.87A4,4,0,0,1,85.69,53a3.34,3.34,0,0,1-1.12,1.29,4.18,4.18,0,0,1-1.55.61,12.06,12.06,0,0,1-2.19.17H79.64v2.4ZM79.64,53h.48a2.93,2.93,0,0,0,2.13-.54,1.94,1.94,0,0,0,.48-1.34,2,2,0,0,0-.33-1.15,1.36,1.36,0,0,0-.76-.59,6.18,6.18,0,0,0-1.39-.11h-.6Z"/></g><g id="pdf"><path class="cls-1" d="M7.39,34.19A2.79,2.79,0,0,0,4.6,37v22.4a2.79,2.79,0,0,0,2.79,2.8H24.19a2.8,2.8,0,0,0,2.8-2.8V42.59l-8.4-8.4Zm9.8,9.8v-7.7l7.7,7.7ZM14,45.21h0a6.32,6.32,0,0,0,.33-1.48v-.33a2.63,2.63,0,0,0,0-1.65v-.17l-.17-.16a.16.16,0,0,1-.16.16,6.66,6.66,0,0,0,0,3.62ZM9.06,56.56a3.66,3.66,0,0,0-.82.49A8.11,8.11,0,0,0,6.1,59.69c1-.16,2-1.15,3-3.13ZM24.2,54.1c-.17-.17-.83-.66-3.13-.66h-.32v.16a8.71,8.71,0,0,0,3.12.83h.49v-.17a.16.16,0,0,1-.16-.16Zm.66,1.32a3.33,3.33,0,0,1-1.49.33,11.8,11.8,0,0,1-4.93-1.16,26.87,26.87,0,0,0-6.58,1.32c-.17,0-.17,0-.33.17-2,3.45-3.62,5.09-4.94,5.09-.33,0-.49,0-.66-.16l-.82-.49v-.17a1.44,1.44,0,0,1-.17-.82,6.34,6.34,0,0,1,3.13-3.45c.33-.17.82-.5,1.48-.83.49-.82,1-1.81,1.65-3A34.8,34.8,0,0,0,13,47.52a7.64,7.64,0,0,1-.33-5.43c.16-.66.66-1.32,1.32-1.32h.33a2.28,2.28,0,0,1,1,.33c1.15,1.15.66,3.78,0,5.92v.17a11.9,11.9,0,0,0,2.63,4.27,11.92,11.92,0,0,0,1.48,1c.82,0,1.48-.16,2.14-.16,2,0,3.29.32,3.78,1.15a2.15,2.15,0,0,1,.16,1,11.09,11.09,0,0,1-.65,1ZM14.16,49a35.44,35.44,0,0,1-1.64,3.94c-.33.66-.66,1.16-1,1.82h.33a25,25,0,0,1,5.42-1.49,2.16,2.16,0,0,1-.65-.49A16.64,16.64,0,0,1,14.16,49Z"/></g></svg>